<mxfile host="app.diagrams.net" agent="Mozilla/5.0 (Windows NT 10.0; Win64; x64) AppleWebKit/537.36 (KHTML, like Gecko) Chrome/133.0.0.0 Safari/537.36 Edg/133.0.0.0" version="26.0.16">
  <diagram name="Page-1" id="itRD_2QNZPV_3t-yydYP">
    <mxGraphModel dx="651" dy="353" grid="1" gridSize="10" guides="1" tooltips="1" connect="1" arrows="1" fold="1" page="1" pageScale="1" pageWidth="850" pageHeight="1100" math="0" shadow="0">
      <root>
        <mxCell id="0" />
        <mxCell id="1" parent="0" />
        <mxCell id="IxJLa1rMTjvzqnqpUnTz-15" style="edgeStyle=orthogonalEdgeStyle;rounded=0;orthogonalLoop=1;jettySize=auto;html=1;exitX=1;exitY=0.5;exitDx=0;exitDy=0;entryX=0;entryY=0.5;entryDx=0;entryDy=0;endArrow=none;startFill=0;" edge="1" parent="1" source="IxJLa1rMTjvzqnqpUnTz-11" target="IxJLa1rMTjvzqnqpUnTz-13">
          <mxGeometry relative="1" as="geometry" />
        </mxCell>
        <mxCell id="IxJLa1rMTjvzqnqpUnTz-24" style="edgeStyle=orthogonalEdgeStyle;rounded=0;orthogonalLoop=1;jettySize=auto;html=1;exitX=0.5;exitY=1;exitDx=0;exitDy=0;entryX=0.5;entryY=0;entryDx=0;entryDy=0;endArrow=none;startFill=0;" edge="1" parent="1" source="IxJLa1rMTjvzqnqpUnTz-11" target="IxJLa1rMTjvzqnqpUnTz-23">
          <mxGeometry relative="1" as="geometry" />
        </mxCell>
        <mxCell id="IxJLa1rMTjvzqnqpUnTz-32" style="edgeStyle=orthogonalEdgeStyle;rounded=0;orthogonalLoop=1;jettySize=auto;html=1;exitX=1;exitY=1;exitDx=0;exitDy=0;" edge="1" parent="1" source="IxJLa1rMTjvzqnqpUnTz-11" target="IxJLa1rMTjvzqnqpUnTz-34">
          <mxGeometry relative="1" as="geometry">
            <mxPoint x="450" y="500" as="targetPoint" />
          </mxGeometry>
        </mxCell>
        <mxCell id="IxJLa1rMTjvzqnqpUnTz-41" style="edgeStyle=orthogonalEdgeStyle;rounded=0;orthogonalLoop=1;jettySize=auto;html=1;exitX=0.75;exitY=1;exitDx=0;exitDy=0;" edge="1" parent="1" source="IxJLa1rMTjvzqnqpUnTz-11">
          <mxGeometry relative="1" as="geometry">
            <mxPoint x="600" y="750.8888753255209" as="targetPoint" />
            <Array as="points">
              <mxPoint x="138" y="370" />
              <mxPoint x="601" y="370" />
              <mxPoint x="601" y="751" />
            </Array>
          </mxGeometry>
        </mxCell>
        <mxCell id="IxJLa1rMTjvzqnqpUnTz-11" value="Student&amp;nbsp;" style="rounded=0;whiteSpace=wrap;html=1;" vertex="1" parent="1">
          <mxGeometry x="40" y="110" width="130" height="60" as="geometry" />
        </mxCell>
        <mxCell id="IxJLa1rMTjvzqnqpUnTz-16" style="edgeStyle=orthogonalEdgeStyle;rounded=0;orthogonalLoop=1;jettySize=auto;html=1;exitX=0;exitY=0.5;exitDx=0;exitDy=0;entryX=1;entryY=0.5;entryDx=0;entryDy=0;endArrow=none;startFill=0;" edge="1" parent="1" source="IxJLa1rMTjvzqnqpUnTz-12" target="IxJLa1rMTjvzqnqpUnTz-13">
          <mxGeometry relative="1" as="geometry" />
        </mxCell>
        <mxCell id="IxJLa1rMTjvzqnqpUnTz-20" style="edgeStyle=orthogonalEdgeStyle;rounded=0;orthogonalLoop=1;jettySize=auto;html=1;exitX=0.5;exitY=1;exitDx=0;exitDy=0;entryX=0.5;entryY=0;entryDx=0;entryDy=0;endArrow=none;startFill=0;" edge="1" parent="1" source="IxJLa1rMTjvzqnqpUnTz-12" target="IxJLa1rMTjvzqnqpUnTz-18">
          <mxGeometry relative="1" as="geometry" />
        </mxCell>
        <mxCell id="IxJLa1rMTjvzqnqpUnTz-12" value="Activities" style="rounded=0;whiteSpace=wrap;html=1;" vertex="1" parent="1">
          <mxGeometry x="560" y="110" width="120" height="60" as="geometry" />
        </mxCell>
        <mxCell id="IxJLa1rMTjvzqnqpUnTz-13" value="Participate" style="rhombus;whiteSpace=wrap;html=1;" vertex="1" parent="1">
          <mxGeometry x="300" y="105" width="90" height="70" as="geometry" />
        </mxCell>
        <mxCell id="IxJLa1rMTjvzqnqpUnTz-17" value="Lecturer" style="rounded=0;whiteSpace=wrap;html=1;" vertex="1" parent="1">
          <mxGeometry x="560" y="420" width="120" height="60" as="geometry" />
        </mxCell>
        <mxCell id="IxJLa1rMTjvzqnqpUnTz-21" style="edgeStyle=orthogonalEdgeStyle;rounded=0;orthogonalLoop=1;jettySize=auto;html=1;exitX=0.5;exitY=1;exitDx=0;exitDy=0;entryX=0.5;entryY=0;entryDx=0;entryDy=0;endArrow=none;startFill=0;" edge="1" parent="1" source="IxJLa1rMTjvzqnqpUnTz-18" target="IxJLa1rMTjvzqnqpUnTz-17">
          <mxGeometry relative="1" as="geometry" />
        </mxCell>
        <mxCell id="IxJLa1rMTjvzqnqpUnTz-18" value="Supervise" style="rhombus;whiteSpace=wrap;html=1;" vertex="1" parent="1">
          <mxGeometry x="580" y="260" width="80" height="80" as="geometry" />
        </mxCell>
        <mxCell id="IxJLa1rMTjvzqnqpUnTz-30" style="edgeStyle=orthogonalEdgeStyle;rounded=0;orthogonalLoop=1;jettySize=auto;html=1;exitX=0.5;exitY=1;exitDx=0;exitDy=0;endArrow=none;startFill=0;" edge="1" parent="1" source="IxJLa1rMTjvzqnqpUnTz-22" target="IxJLa1rMTjvzqnqpUnTz-28">
          <mxGeometry relative="1" as="geometry" />
        </mxCell>
        <mxCell id="IxJLa1rMTjvzqnqpUnTz-22" value="Room" style="rounded=0;whiteSpace=wrap;html=1;" vertex="1" parent="1">
          <mxGeometry x="45" y="430" width="120" height="60" as="geometry" />
        </mxCell>
        <mxCell id="IxJLa1rMTjvzqnqpUnTz-25" style="edgeStyle=orthogonalEdgeStyle;rounded=0;orthogonalLoop=1;jettySize=auto;html=1;exitX=0.5;exitY=1;exitDx=0;exitDy=0;entryX=0.5;entryY=0;entryDx=0;entryDy=0;endArrow=none;startFill=0;" edge="1" parent="1" source="IxJLa1rMTjvzqnqpUnTz-23" target="IxJLa1rMTjvzqnqpUnTz-22">
          <mxGeometry relative="1" as="geometry" />
        </mxCell>
        <mxCell id="IxJLa1rMTjvzqnqpUnTz-23" value="assigned" style="rhombus;whiteSpace=wrap;html=1;" vertex="1" parent="1">
          <mxGeometry x="65" y="260" width="80" height="80" as="geometry" />
        </mxCell>
        <mxCell id="IxJLa1rMTjvzqnqpUnTz-26" style="edgeStyle=orthogonalEdgeStyle;rounded=0;orthogonalLoop=1;jettySize=auto;html=1;exitX=0;exitY=0.5;exitDx=0;exitDy=0;entryX=1.008;entryY=0.373;entryDx=0;entryDy=0;entryPerimeter=0;endArrow=none;startFill=0;" edge="1" parent="1" source="IxJLa1rMTjvzqnqpUnTz-17" target="IxJLa1rMTjvzqnqpUnTz-22">
          <mxGeometry relative="1" as="geometry">
            <Array as="points">
              <mxPoint x="560" y="452" />
            </Array>
          </mxGeometry>
        </mxCell>
        <mxCell id="IxJLa1rMTjvzqnqpUnTz-31" style="edgeStyle=orthogonalEdgeStyle;rounded=0;orthogonalLoop=1;jettySize=auto;html=1;exitX=0.5;exitY=1;exitDx=0;exitDy=0;entryX=0.5;entryY=0;entryDx=0;entryDy=0;endArrow=none;startFill=0;" edge="1" parent="1" source="IxJLa1rMTjvzqnqpUnTz-28" target="IxJLa1rMTjvzqnqpUnTz-29">
          <mxGeometry relative="1" as="geometry" />
        </mxCell>
        <mxCell id="IxJLa1rMTjvzqnqpUnTz-28" value="Belongs" style="rhombus;whiteSpace=wrap;html=1;" vertex="1" parent="1">
          <mxGeometry x="65" y="600" width="80" height="80" as="geometry" />
        </mxCell>
        <mxCell id="IxJLa1rMTjvzqnqpUnTz-29" value="Building" style="rounded=0;whiteSpace=wrap;html=1;" vertex="1" parent="1">
          <mxGeometry x="45" y="820" width="120" height="60" as="geometry" />
        </mxCell>
        <mxCell id="IxJLa1rMTjvzqnqpUnTz-36" style="edgeStyle=orthogonalEdgeStyle;rounded=0;orthogonalLoop=1;jettySize=auto;html=1;exitX=0.5;exitY=1;exitDx=0;exitDy=0;entryX=0.5;entryY=0;entryDx=0;entryDy=0;" edge="1" parent="1" source="IxJLa1rMTjvzqnqpUnTz-34" target="IxJLa1rMTjvzqnqpUnTz-35">
          <mxGeometry relative="1" as="geometry" />
        </mxCell>
        <mxCell id="IxJLa1rMTjvzqnqpUnTz-34" value="purchase" style="rhombus;whiteSpace=wrap;html=1;" vertex="1" parent="1">
          <mxGeometry x="410" y="460" width="80" height="80" as="geometry" />
        </mxCell>
        <mxCell id="IxJLa1rMTjvzqnqpUnTz-35" value="Voucher" style="rounded=0;whiteSpace=wrap;html=1;" vertex="1" parent="1">
          <mxGeometry x="390" y="630" width="120" height="60" as="geometry" />
        </mxCell>
        <mxCell id="IxJLa1rMTjvzqnqpUnTz-40" style="edgeStyle=orthogonalEdgeStyle;rounded=0;orthogonalLoop=1;jettySize=auto;html=1;exitX=0.5;exitY=1;exitDx=0;exitDy=0;" edge="1" parent="1" source="IxJLa1rMTjvzqnqpUnTz-38" target="IxJLa1rMTjvzqnqpUnTz-39">
          <mxGeometry relative="1" as="geometry" />
        </mxCell>
        <mxCell id="IxJLa1rMTjvzqnqpUnTz-38" value="Consumes" style="rhombus;whiteSpace=wrap;html=1;" vertex="1" parent="1">
          <mxGeometry x="560" y="749.9988753255212" width="80" height="80" as="geometry" />
        </mxCell>
        <mxCell id="IxJLa1rMTjvzqnqpUnTz-39" value="Drink" style="rounded=0;whiteSpace=wrap;html=1;" vertex="1" parent="1">
          <mxGeometry x="540" y="950" width="120" height="60" as="geometry" />
        </mxCell>
        <mxCell id="IxJLa1rMTjvzqnqpUnTz-42" value="n" style="text;html=1;align=center;verticalAlign=middle;whiteSpace=wrap;rounded=0;" vertex="1" parent="1">
          <mxGeometry x="170" y="120" width="30" height="15" as="geometry" />
        </mxCell>
        <mxCell id="IxJLa1rMTjvzqnqpUnTz-43" value="m" style="text;html=1;align=center;verticalAlign=middle;whiteSpace=wrap;rounded=0;" vertex="1" parent="1">
          <mxGeometry x="500" y="112.5" width="60" height="30" as="geometry" />
        </mxCell>
        <mxCell id="IxJLa1rMTjvzqnqpUnTz-44" value="n" style="text;html=1;align=center;verticalAlign=middle;whiteSpace=wrap;rounded=0;" vertex="1" parent="1">
          <mxGeometry x="610" y="400" width="50" height="20" as="geometry" />
        </mxCell>
        <mxCell id="IxJLa1rMTjvzqnqpUnTz-45" value="m" style="text;html=1;align=center;verticalAlign=middle;whiteSpace=wrap;rounded=0;" vertex="1" parent="1">
          <mxGeometry x="600" y="170" width="60" height="30" as="geometry" />
        </mxCell>
        <mxCell id="IxJLa1rMTjvzqnqpUnTz-46" value="1" style="text;html=1;align=center;verticalAlign=middle;whiteSpace=wrap;rounded=0;" vertex="1" parent="1">
          <mxGeometry x="80" y="170" width="30" height="20" as="geometry" />
        </mxCell>
        <mxCell id="IxJLa1rMTjvzqnqpUnTz-47" value="n" style="text;html=1;align=center;verticalAlign=middle;whiteSpace=wrap;rounded=0;" vertex="1" parent="1">
          <mxGeometry x="60" y="410" width="60" height="30" as="geometry" />
        </mxCell>
        <mxCell id="IxJLa1rMTjvzqnqpUnTz-48" value="1" style="text;html=1;align=center;verticalAlign=middle;whiteSpace=wrap;rounded=0;" vertex="1" parent="1">
          <mxGeometry x="520" y="430" width="60" height="30" as="geometry" />
        </mxCell>
        <mxCell id="IxJLa1rMTjvzqnqpUnTz-51" value="1" style="text;html=1;align=center;verticalAlign=middle;whiteSpace=wrap;rounded=0;" vertex="1" parent="1">
          <mxGeometry x="165" y="430" width="25" height="30" as="geometry" />
        </mxCell>
        <mxCell id="IxJLa1rMTjvzqnqpUnTz-52" value="m" style="text;html=1;align=center;verticalAlign=middle;whiteSpace=wrap;rounded=0;" vertex="1" parent="1">
          <mxGeometry x="65" y="480" width="60" height="30" as="geometry" />
        </mxCell>
        <mxCell id="IxJLa1rMTjvzqnqpUnTz-53" value="1" style="text;html=1;align=center;verticalAlign=middle;whiteSpace=wrap;rounded=0;" vertex="1" parent="1">
          <mxGeometry x="65" y="790" width="60" height="30" as="geometry" />
        </mxCell>
        <mxCell id="IxJLa1rMTjvzqnqpUnTz-54" value="1" style="text;html=1;align=center;verticalAlign=middle;whiteSpace=wrap;rounded=0;" vertex="1" parent="1">
          <mxGeometry x="170" y="165" width="60" height="30" as="geometry" />
        </mxCell>
        <mxCell id="IxJLa1rMTjvzqnqpUnTz-55" value="n" style="text;html=1;align=center;verticalAlign=middle;whiteSpace=wrap;rounded=0;" vertex="1" parent="1">
          <mxGeometry x="440" y="600" width="60" height="30" as="geometry" />
        </mxCell>
        <mxCell id="IxJLa1rMTjvzqnqpUnTz-56" value="n" style="text;html=1;align=center;verticalAlign=middle;whiteSpace=wrap;rounded=0;" vertex="1" parent="1">
          <mxGeometry x="120" y="165" width="60" height="30" as="geometry" />
        </mxCell>
        <mxCell id="IxJLa1rMTjvzqnqpUnTz-58" value="m" style="text;html=1;align=center;verticalAlign=middle;whiteSpace=wrap;rounded=0;" vertex="1" parent="1">
          <mxGeometry x="550" y="920" width="60" height="30" as="geometry" />
        </mxCell>
      </root>
    </mxGraphModel>
  </diagram>
</mxfile>
